<?xml version="1.0" encoding="utf-8"?>
<!-- Generator: Adobe Illustrator 16.0.0, SVG Export Plug-In . SVG Version: 6.00 Build 0)  -->
<!DOCTYPE svg PUBLIC "-//W3C//DTD SVG 1.1//EN" "http://www.w3.org/Graphics/SVG/1.1/DTD/svg11.dtd">
<svg version="1.1" id="Layer_1" xmlns="http://www.w3.org/2000/svg" xmlns:xlink="http://www.w3.org/1999/xlink" x="0px" y="0px"
	 width="128px" height="128px" viewBox="0 0 128 128" enable-background="new 0 0 128 128" xml:space="preserve">
<g>
	<path d="M99.2,64c0-6.6,4.9-12.1,11.4-13c-2.2-7.9-6.4-15.1-12-20.8c-4,5.1-11.2,6.6-16.9,3.3c-5.8-3.3-8-10.4-5.6-16.3
		c-3.8-1-7.9-1.5-12-1.5c-4.1,0-8.2,0.5-12,1.5c2.4,6,0.2,13-5.6,16.3c-5.8,3.3-13,1.8-16.9-3.3c-5.6,5.7-9.8,12.9-12,20.8
		c6.4,0.9,11.3,6.3,11.3,13s-4.9,12.1-11.3,13c2.2,7.9,6.4,15.1,12,20.8c4-5.1,11.2-6.6,16.9-3.3c5.8,3.3,8,10.4,5.6,16.3
		c3.8,1,7.9,1.5,12,1.5c4.1,0,8.2-0.5,12-1.5c-2.5-6-0.2-13,5.6-16.3c5.8-3.3,13-1.8,16.9,3.3c5.6-5.7,9.8-12.9,12-20.8
		C104.1,76.1,99.2,70.6,99.2,64z M64,81.1c-9.4,0-17.1-7.7-17.1-17.1S54.6,46.9,64,46.9c9.4,0,17.1,7.7,17.1,17.1S73.4,81.1,64,81.1
		z"/>
</g>
</svg>
