<?xml version="1.0" encoding="utf-8"?>
<!-- Generator: Adobe Illustrator 20.0.0, SVG Export Plug-In . SVG Version: 6.00 Build 0)  -->
<svg version="1.1" id="Layer_1" xmlns="http://www.w3.org/2000/svg" xmlns:xlink="http://www.w3.org/1999/xlink" x="0px" y="0px"
	 viewBox="0 0 44 44" style="enable-background:new 0 0 44 44;" xml:space="preserve">
<g>
	<path d="M21.4,7.1c-0.4-0.2-0.9-0.2-1.3,0L8.6,14.6H4.4c-0.7,0-1.3,0.6-1.3,1.3v11.2c0,0.7,0.6,1.3,1.3,1.3h4.3l11.5,7.5
		c0.2,0.1,0.5,0.2,0.7,0.2c0.2,0,0.4,0,0.6-0.2c0.4-0.2,0.7-0.7,0.7-1.1V8.2C22.1,7.7,21.8,7.3,21.4,7.1z"/>
	<g>
		<g>
			<path d="M25.6,30.5c0.1,0,0.2,0,0.3-0.1c2.9-1.1,4.9-4.7,4.9-8.8c0-3.6-1.6-6.9-4.1-8.3c-0.4-0.3-1-0.1-1.2,0.3
				c-0.3,0.4-0.1,1,0.3,1.2c1.9,1.1,3.2,3.8,3.2,6.8c0,3.3-1.5,6.2-3.8,7.1c-0.5,0.2-0.7,0.7-0.5,1.2C25,30.3,25.3,30.5,25.6,30.5z"
				/>
		</g>
		<g>
			<path d="M28,34.2c0.1,0,0.2,0,0.3-0.1c4.1-1.6,7-6.8,7-12.6c0-5.2-2.3-9.9-5.8-12c-0.4-0.3-1-0.1-1.2,0.3c-0.3,0.4-0.1,1,0.3,1.2
				c3,1.8,4.9,5.9,4.9,10.5c0,5.1-2.4,9.6-5.9,10.9c-0.5,0.2-0.7,0.7-0.5,1.2C27.3,34,27.6,34.2,28,34.2z"/>
		</g>
		<g>
			<g>
				<path d="M30.4,37.8c-0.4,0-0.7-0.2-0.8-0.6c-0.2-0.5,0-1,0.5-1.2c4.7-1.8,8-7.8,8-14.5c0-6.1-2.6-11.5-6.7-13.9
					c-0.4-0.3-0.6-0.8-0.3-1.2c0.3-0.4,0.8-0.6,1.2-0.3c4.6,2.7,7.6,8.8,7.6,15.4c0,7.5-3.7,14.1-9.1,16.2
					C30.6,37.8,30.5,37.8,30.4,37.8z"/>
			</g>
		</g>
	</g>
</g>
</svg>
