<?xml version="1.0" encoding="UTF-8" standalone="no"?>
<!DOCTYPE svg PUBLIC "-//W3C//DTD SVG 1.0//EN" "http://www.w3.org/TR/2001/PR-SVG-20010719/DTD/svg10.dtd">
<svg width="53cm" height="39cm" viewBox="38 18 1051 762" xmlns="http://www.w3.org/2000/svg" xmlns:xlink="http://www.w3.org/1999/xlink">
  <g>
    <rect style="fill: #ffffff" x="610" y="20" width="467.573" height="440"/>
    <path style="fill: #ffffff" d="M 610,20 A 10,10 0 0 0 600,30 L 610,30 z"/>
    <path style="fill: #ffffff" d="M 1087.57,30 A 10,10 0 0 0 1077.57,20 L 1077.57,30 z"/>
    <rect style="fill: #ffffff" x="600" y="30" width="487.573" height="420"/>
    <path style="fill: #ffffff" d="M 600,450 A 10,10 0 0 0 610,460 L 610,450 z"/>
    <path style="fill: #ffffff" d="M 1077.57,460 A 10,10 0 0 0 1087.57,450 L 1077.57,450 z"/>
    <line style="fill: none; fill-opacity:0; stroke-width: 3; stroke: #000000" x1="610" y1="20" x2="1077.57" y2="20"/>
    <line style="fill: none; fill-opacity:0; stroke-width: 3; stroke: #000000" x1="610" y1="460" x2="1077.57" y2="460"/>
    <path style="fill: none; fill-opacity:0; stroke-width: 3; stroke: #000000" d="M 610,20 A 10,10 0 0 0 600,30"/>
    <path style="fill: none; fill-opacity:0; stroke-width: 3; stroke: #000000" d="M 1087.57,30 A 10,10 0 0 0 1077.57,20"/>
    <line style="fill: none; fill-opacity:0; stroke-width: 3; stroke: #000000" x1="600" y1="30" x2="600" y2="450"/>
    <line style="fill: none; fill-opacity:0; stroke-width: 3; stroke: #000000" x1="1087.57" y1="30" x2="1087.57" y2="450"/>
    <path style="fill: none; fill-opacity:0; stroke-width: 3; stroke: #000000" d="M 600,450 A 10,10 0 0 0 610,460"/>
    <path style="fill: none; fill-opacity:0; stroke-width: 3; stroke: #000000" d="M 1077.57,460 A 10,10 0 0 0 1087.57,450"/>
    <text font-size="12.8" style="fill: #00ff00;text-anchor:middle;font-family:sans-serif;font-style:normal;font-weight:normal" x="843.786" y="243.9">
      <tspan x="843.786" y="243.9"></tspan>
    </text>
  </g>
  <g>
    <rect style="fill: #ffffff" x="650" y="240" width="380" height="180"/>
    <path style="fill: #ffffff" d="M 650,240 A 10,10 0 0 0 640,250 L 650,250 z"/>
    <path style="fill: #ffffff" d="M 1040,250 A 10,10 0 0 0 1030,240 L 1030,250 z"/>
    <rect style="fill: #ffffff" x="640" y="250" width="400" height="160"/>
    <path style="fill: #ffffff" d="M 640,410 A 10,10 0 0 0 650,420 L 650,410 z"/>
    <path style="fill: #ffffff" d="M 1030,420 A 10,10 0 0 0 1040,410 L 1030,410 z"/>
    <line style="fill: none; fill-opacity:0; stroke-width: 2; stroke: #000000" x1="650" y1="240" x2="1030" y2="240"/>
    <line style="fill: none; fill-opacity:0; stroke-width: 2; stroke: #000000" x1="650" y1="420" x2="1030" y2="420"/>
    <path style="fill: none; fill-opacity:0; stroke-width: 2; stroke: #000000" d="M 650,240 A 10,10 0 0 0 640,250"/>
    <path style="fill: none; fill-opacity:0; stroke-width: 2; stroke: #000000" d="M 1040,250 A 10,10 0 0 0 1030,240"/>
    <line style="fill: none; fill-opacity:0; stroke-width: 2; stroke: #000000" x1="640" y1="250" x2="640" y2="410"/>
    <line style="fill: none; fill-opacity:0; stroke-width: 2; stroke: #000000" x1="1040" y1="250" x2="1040" y2="410"/>
    <path style="fill: none; fill-opacity:0; stroke-width: 2; stroke: #000000" d="M 640,410 A 10,10 0 0 0 650,420"/>
    <path style="fill: none; fill-opacity:0; stroke-width: 2; stroke: #000000" d="M 1030,420 A 10,10 0 0 0 1040,410"/>
    <text font-size="12.8" style="fill: #00ff00;text-anchor:middle;font-family:sans-serif;font-style:normal;font-weight:normal" x="840" y="333.9">
      <tspan x="840" y="333.9"></tspan>
    </text>
  </g>
  <g>
    <rect style="fill: #ffffff" x="50" y="20" width="520" height="500"/>
    <path style="fill: #ffffff" d="M 50,20 A 10,10 0 0 0 40,30 L 50,30 z"/>
    <path style="fill: #ffffff" d="M 580,30 A 10,10 0 0 0 570,20 L 570,30 z"/>
    <rect style="fill: #ffffff" x="40" y="30" width="540" height="480"/>
    <path style="fill: #ffffff" d="M 40,510 A 10,10 0 0 0 50,520 L 50,510 z"/>
    <path style="fill: #ffffff" d="M 570,520 A 10,10 0 0 0 580,510 L 570,510 z"/>
    <line style="fill: none; fill-opacity:0; stroke-width: 3; stroke: #000000" x1="50" y1="20" x2="570" y2="20"/>
    <line style="fill: none; fill-opacity:0; stroke-width: 3; stroke: #000000" x1="50" y1="520" x2="570" y2="520"/>
    <path style="fill: none; fill-opacity:0; stroke-width: 3; stroke: #000000" d="M 50,20 A 10,10 0 0 0 40,30"/>
    <path style="fill: none; fill-opacity:0; stroke-width: 3; stroke: #000000" d="M 580,30 A 10,10 0 0 0 570,20"/>
    <line style="fill: none; fill-opacity:0; stroke-width: 3; stroke: #000000" x1="40" y1="30" x2="40" y2="510"/>
    <line style="fill: none; fill-opacity:0; stroke-width: 3; stroke: #000000" x1="580" y1="30" x2="580" y2="510"/>
    <path style="fill: none; fill-opacity:0; stroke-width: 3; stroke: #000000" d="M 40,510 A 10,10 0 0 0 50,520"/>
    <path style="fill: none; fill-opacity:0; stroke-width: 3; stroke: #000000" d="M 570,520 A 10,10 0 0 0 580,510"/>
    <text font-size="12.8" style="fill: #00ff00;text-anchor:middle;font-family:sans-serif;font-style:normal;font-weight:normal" x="310" y="273.9">
      <tspan x="310" y="273.9"></tspan>
    </text>
  </g>
  <g>
    <polyline style="fill: none; fill-opacity:0; stroke-width: 8; stroke: #ff0400" points="660,369.882 420,369.882 420,370 196.444,370 "/>
    <polygon style="fill: #ff0400" points="188.944,370 198.944,365 196.444,370 198.944,375 "/>
    <polygon style="fill: none; fill-opacity:0; stroke-width: 8; stroke: #ff0400" points="188.944,370 198.944,365 196.444,370 198.944,375 "/>
  </g>
  <g>
    <rect style="fill: #ffffff" x="650" y="80" width="380" height="140"/>
    <path style="fill: #ffffff" d="M 650,80 A 10,10 0 0 0 640,90 L 650,90 z"/>
    <path style="fill: #ffffff" d="M 1040,90 A 10,10 0 0 0 1030,80 L 1030,90 z"/>
    <rect style="fill: #ffffff" x="640" y="90" width="400" height="120"/>
    <path style="fill: #ffffff" d="M 640,210 A 10,10 0 0 0 650,220 L 650,210 z"/>
    <path style="fill: #ffffff" d="M 1030,220 A 10,10 0 0 0 1040,210 L 1030,210 z"/>
    <line style="fill: none; fill-opacity:0; stroke-width: 2; stroke: #000000" x1="650" y1="80" x2="1030" y2="80"/>
    <line style="fill: none; fill-opacity:0; stroke-width: 2; stroke: #000000" x1="650" y1="220" x2="1030" y2="220"/>
    <path style="fill: none; fill-opacity:0; stroke-width: 2; stroke: #000000" d="M 650,80 A 10,10 0 0 0 640,90"/>
    <path style="fill: none; fill-opacity:0; stroke-width: 2; stroke: #000000" d="M 1040,90 A 10,10 0 0 0 1030,80"/>
    <line style="fill: none; fill-opacity:0; stroke-width: 2; stroke: #000000" x1="640" y1="90" x2="640" y2="210"/>
    <line style="fill: none; fill-opacity:0; stroke-width: 2; stroke: #000000" x1="1040" y1="90" x2="1040" y2="210"/>
    <path style="fill: none; fill-opacity:0; stroke-width: 2; stroke: #000000" d="M 640,210 A 10,10 0 0 0 650,220"/>
    <path style="fill: none; fill-opacity:0; stroke-width: 2; stroke: #000000" d="M 1030,220 A 10,10 0 0 0 1040,210"/>
    <text font-size="12.8" style="fill: #00ff00;text-anchor:middle;font-family:sans-serif;font-style:normal;font-weight:normal" x="840" y="153.9">
      <tspan x="840" y="153.9"></tspan>
    </text>
  </g>
  <g>
    <polyline style="fill: none; fill-opacity:0; stroke-width: 10; stroke: #ffa500" points="279.4,320 280,320 280,541.32 "/>
    <polygon style="fill: #ffa500" points="280,548.82 275,538.82 280,541.32 285,538.82 "/>
    <polygon style="fill: none; fill-opacity:0; stroke-width: 10; stroke: #ffa500" points="280,548.82 275,538.82 280,541.32 285,538.82 "/>
  </g>
  <text font-size="12.8" style="fill: #000000;text-anchor:start;font-family:sans-serif;font-style:normal;font-weight:normal" x="400" y="226.04">
    <tspan x="400" y="226.04"></tspan>
  </text>
  <text font-size="22.5778" style="fill: #000000;text-anchor:start;font-family:sans-serif;font-style:normal;font-weight:700" x="203.776" y="60">
    <tspan x="203.776" y="60">TimeSide Engine</tspan>
  </text>
  <g>
    <rect style="fill: #ff0400" x="870" y="140" width="138.05" height="63.1046"/>
    <path style="fill: #ff0400" d="M 870,140 A 10,10 0 0 0 860,150 L 870,150 z"/>
    <path style="fill: #ff0400" d="M 1018.05,150 A 10,10 0 0 0 1008.05,140 L 1008.05,150 z"/>
    <rect style="fill: #ff0400" x="860" y="150" width="158.05" height="43.1046"/>
    <path style="fill: #ff0400" d="M 860,193.105 A 10,10 0 0 0 870,203.105 L 870,193.105 z"/>
    <path style="fill: #ff0400" d="M 1008.05,203.105 A 10,10 0 0 0 1018.05,193.105 L 1008.05,193.105 z"/>
    <line style="fill: none; fill-opacity:0; stroke-width: 2.35099e-37; stroke: #000000" x1="870" y1="140" x2="1008.05" y2="140"/>
    <line style="fill: none; fill-opacity:0; stroke-width: 2.35099e-37; stroke: #000000" x1="870" y1="203.105" x2="1008.05" y2="203.105"/>
    <path style="fill: none; fill-opacity:0; stroke-width: 2.35099e-37; stroke: #000000" d="M 870,140 A 10,10 0 0 0 860,150"/>
    <path style="fill: none; fill-opacity:0; stroke-width: 2.35099e-37; stroke: #000000" d="M 1018.05,150 A 10,10 0 0 0 1008.05,140"/>
    <line style="fill: none; fill-opacity:0; stroke-width: 2.35099e-37; stroke: #000000" x1="860" y1="150" x2="860" y2="193.105"/>
    <line style="fill: none; fill-opacity:0; stroke-width: 2.35099e-37; stroke: #000000" x1="1018.05" y1="150" x2="1018.05" y2="193.105"/>
    <path style="fill: none; fill-opacity:0; stroke-width: 2.35099e-37; stroke: #000000" d="M 860,193.105 A 10,10 0 0 0 870,203.105"/>
    <path style="fill: none; fill-opacity:0; stroke-width: 2.35099e-37; stroke: #000000" d="M 1008.05,203.105 A 10,10 0 0 0 1018.05,193.105"/>
    <text font-size="19.7556" style="fill: #ffffff;text-anchor:middle;font-family:sans-serif;font-style:normal;font-weight:normal" x="939.025" y="177.555">
      <tspan x="939.025" y="177.555">Metadata</tspan>
    </text>
  </g>
  <text font-size="12.8" style="fill: #000000;text-anchor:start;font-family:sans-serif;font-style:normal;font-weight:normal" x="298.536" y="150">
    <tspan x="298.536" y="150"></tspan>
  </text>
  <text font-size="22.5778" style="fill: #000000;text-anchor:start;font-family:sans-serif;font-style:normal;font-weight:700" x="800" y="120">
    <tspan x="800" y="120">Media</tspan>
  </text>
  <g>
    <polyline style="fill: none; fill-opacity:0; stroke-width: 10; stroke: #1af5dd" points="183.9,290 100.537,290 100.537,290 205.67,290 "/>
    <polygon style="fill: #1af5dd" points="208.82,290 204.62,292.1 205.67,290 204.62,287.9 "/>
    <polygon style="fill: none; fill-opacity:0; stroke-width: 10; stroke: #1af5dd" points="208.82,290 204.62,292.1 205.67,290 204.62,287.9 "/>
  </g>
  <g>
    <rect style="fill: #c3d9ff" x="230" y="260" width="98.8" height="60"/>
    <path style="fill: #c3d9ff" d="M 230,260 A 10,10 0 0 0 220,270 L 230,270 z"/>
    <path style="fill: #c3d9ff" d="M 338.8,270 A 10,10 0 0 0 328.8,260 L 328.8,270 z"/>
    <rect style="fill: #c3d9ff" x="220" y="270" width="118.8" height="40"/>
    <path style="fill: #c3d9ff" d="M 220,310 A 10,10 0 0 0 230,320 L 230,310 z"/>
    <path style="fill: #c3d9ff" d="M 328.8,320 A 10,10 0 0 0 338.8,310 L 328.8,310 z"/>
    <line style="fill: none; fill-opacity:0; stroke-width: 2.35099e-37; stroke: #000000" x1="230" y1="260" x2="328.8" y2="260"/>
    <line style="fill: none; fill-opacity:0; stroke-width: 2.35099e-37; stroke: #000000" x1="230" y1="320" x2="328.8" y2="320"/>
    <path style="fill: none; fill-opacity:0; stroke-width: 2.35099e-37; stroke: #000000" d="M 230,260 A 10,10 0 0 0 220,270"/>
    <path style="fill: none; fill-opacity:0; stroke-width: 2.35099e-37; stroke: #000000" d="M 338.8,270 A 10,10 0 0 0 328.8,260"/>
    <line style="fill: none; fill-opacity:0; stroke-width: 2.35099e-37; stroke: #000000" x1="220" y1="270" x2="220" y2="310"/>
    <line style="fill: none; fill-opacity:0; stroke-width: 2.35099e-37; stroke: #000000" x1="338.8" y1="270" x2="338.8" y2="310"/>
    <path style="fill: none; fill-opacity:0; stroke-width: 2.35099e-37; stroke: #000000" d="M 220,310 A 10,10 0 0 0 230,320"/>
    <path style="fill: none; fill-opacity:0; stroke-width: 2.35099e-37; stroke: #000000" d="M 328.8,320 A 10,10 0 0 0 338.8,310"/>
    <text font-size="19.7556" style="fill: #000000;text-anchor:middle;font-family:sans-serif;font-style:normal;font-weight:normal" x="279.4" y="296.003">
      <tspan x="279.4" y="296.003">Grapher</tspan>
    </text>
  </g>
  <text font-size="22.5778" style="fill: #000000;text-anchor:start;font-family:sans-serif;font-style:normal;font-weight:700" x="697.812" y="60">
    <tspan x="697.812" y="60">Web Server (Telemeta)</tspan>
  </text>
  <g>
    <rect style="fill: #c3d9ff" x="70" y="260" width="103.9" height="60"/>
    <path style="fill: #c3d9ff" d="M 70,260 A 10,10 0 0 0 60,270 L 70,270 z"/>
    <path style="fill: #c3d9ff" d="M 183.9,270 A 10,10 0 0 0 173.9,260 L 173.9,270 z"/>
    <rect style="fill: #c3d9ff" x="60" y="270" width="123.9" height="40"/>
    <path style="fill: #c3d9ff" d="M 60,310 A 10,10 0 0 0 70,320 L 70,310 z"/>
    <path style="fill: #c3d9ff" d="M 173.9,320 A 10,10 0 0 0 183.9,310 L 173.9,310 z"/>
    <line style="fill: none; fill-opacity:0; stroke-width: 2.35099e-37; stroke: #000000" x1="70" y1="260" x2="173.9" y2="260"/>
    <line style="fill: none; fill-opacity:0; stroke-width: 2.35099e-37; stroke: #000000" x1="70" y1="320" x2="173.9" y2="320"/>
    <path style="fill: none; fill-opacity:0; stroke-width: 2.35099e-37; stroke: #000000" d="M 70,260 A 10,10 0 0 0 60,270"/>
    <path style="fill: none; fill-opacity:0; stroke-width: 2.35099e-37; stroke: #000000" d="M 183.9,270 A 10,10 0 0 0 173.9,260"/>
    <line style="fill: none; fill-opacity:0; stroke-width: 2.35099e-37; stroke: #000000" x1="60" y1="270" x2="60" y2="310"/>
    <line style="fill: none; fill-opacity:0; stroke-width: 2.35099e-37; stroke: #000000" x1="183.9" y1="270" x2="183.9" y2="310"/>
    <path style="fill: none; fill-opacity:0; stroke-width: 2.35099e-37; stroke: #000000" d="M 60,310 A 10,10 0 0 0 70,320"/>
    <path style="fill: none; fill-opacity:0; stroke-width: 2.35099e-37; stroke: #000000" d="M 173.9,320 A 10,10 0 0 0 183.9,310"/>
    <text font-size="19.7556" style="fill: #000000;text-anchor:middle;font-family:sans-serif;font-style:normal;font-weight:normal" x="121.95" y="296.003">
      <tspan x="121.95" y="296.003">Analyzer</tspan>
    </text>
  </g>
  <g>
    <rect style="fill: #c3d9ff" x="370" y="260" width="160" height="60"/>
    <path style="fill: #c3d9ff" d="M 370,260 A 10,10 0 0 0 360,270 L 370,270 z"/>
    <path style="fill: #c3d9ff" d="M 540,270 A 10,10 0 0 0 530,260 L 530,270 z"/>
    <rect style="fill: #c3d9ff" x="360" y="270" width="180" height="40"/>
    <path style="fill: #c3d9ff" d="M 360,310 A 10,10 0 0 0 370,320 L 370,310 z"/>
    <path style="fill: #c3d9ff" d="M 530,320 A 10,10 0 0 0 540,310 L 530,310 z"/>
    <line style="fill: none; fill-opacity:0; stroke-width: 2.35099e-37; stroke: #000000" x1="370" y1="260" x2="530" y2="260"/>
    <line style="fill: none; fill-opacity:0; stroke-width: 2.35099e-37; stroke: #000000" x1="370" y1="320" x2="530" y2="320"/>
    <path style="fill: none; fill-opacity:0; stroke-width: 2.35099e-37; stroke: #000000" d="M 370,260 A 10,10 0 0 0 360,270"/>
    <path style="fill: none; fill-opacity:0; stroke-width: 2.35099e-37; stroke: #000000" d="M 540,270 A 10,10 0 0 0 530,260"/>
    <line style="fill: none; fill-opacity:0; stroke-width: 2.35099e-37; stroke: #000000" x1="360" y1="270" x2="360" y2="310"/>
    <line style="fill: none; fill-opacity:0; stroke-width: 2.35099e-37; stroke: #000000" x1="540" y1="270" x2="540" y2="310"/>
    <path style="fill: none; fill-opacity:0; stroke-width: 2.35099e-37; stroke: #000000" d="M 360,310 A 10,10 0 0 0 370,320"/>
    <path style="fill: none; fill-opacity:0; stroke-width: 2.35099e-37; stroke: #000000" d="M 530,320 A 10,10 0 0 0 540,310"/>
    <text font-size="19.7556" style="fill: #000000;text-anchor:middle;font-family:sans-serif;font-style:normal;font-weight:normal" x="450" y="296.003">
      <tspan x="450" y="296.003">Encoder</tspan>
    </text>
  </g>
  <g>
    <rect style="fill: #c3d9ff" x="70" y="100" width="457.071" height="100"/>
    <path style="fill: #c3d9ff" d="M 70,100 A 10,10 0 0 0 60,110 L 70,110 z"/>
    <path style="fill: #c3d9ff" d="M 537.071,110 A 10,10 0 0 0 527.071,100 L 527.071,110 z"/>
    <rect style="fill: #c3d9ff" x="60" y="110" width="477.071" height="80"/>
    <path style="fill: #c3d9ff" d="M 60,190 A 10,10 0 0 0 70,200 L 70,190 z"/>
    <path style="fill: #c3d9ff" d="M 527.071,200 A 10,10 0 0 0 537.071,190 L 527.071,190 z"/>
    <line style="fill: none; fill-opacity:0; stroke-width: 2.35099e-37; stroke: #000000" x1="70" y1="100" x2="527.071" y2="100"/>
    <line style="fill: none; fill-opacity:0; stroke-width: 2.35099e-37; stroke: #000000" x1="70" y1="200" x2="527.071" y2="200"/>
    <path style="fill: none; fill-opacity:0; stroke-width: 2.35099e-37; stroke: #000000" d="M 70,100 A 10,10 0 0 0 60,110"/>
    <path style="fill: none; fill-opacity:0; stroke-width: 2.35099e-37; stroke: #000000" d="M 537.071,110 A 10,10 0 0 0 527.071,100"/>
    <line style="fill: none; fill-opacity:0; stroke-width: 2.35099e-37; stroke: #000000" x1="60" y1="110" x2="60" y2="190"/>
    <line style="fill: none; fill-opacity:0; stroke-width: 2.35099e-37; stroke: #000000" x1="537.071" y1="110" x2="537.071" y2="190"/>
    <path style="fill: none; fill-opacity:0; stroke-width: 2.35099e-37; stroke: #000000" d="M 60,190 A 10,10 0 0 0 70,200"/>
    <path style="fill: none; fill-opacity:0; stroke-width: 2.35099e-37; stroke: #000000" d="M 527.071,200 A 10,10 0 0 0 537.071,190"/>
    <text font-size="19.7556" style="fill: #000000;text-anchor:middle;font-family:sans-serif;font-style:normal;font-weight:normal" x="298.536" y="156.003">
      <tspan x="298.536" y="156.003">Decoder</tspan>
    </text>
  </g>
  <text font-size="22.5778" style="fill: #000000;text-anchor:middle;font-family:sans-serif;font-style:normal;font-weight:700" x="960" y="320">
    <tspan x="960" y="320">Expert</tspan>
    <tspan x="960" y="348.222">Metadata</tspan>
  </text>
  <g>
    <rect style="fill: #ff0400" x="670" y="340" width="197.945" height="59.7655"/>
    <path style="fill: #ff0400" d="M 670,340 A 10,10 0 0 0 660,350 L 670,350 z"/>
    <path style="fill: #ff0400" d="M 877.945,350 A 10,10 0 0 0 867.945,340 L 867.945,350 z"/>
    <rect style="fill: #ff0400" x="660" y="350" width="217.945" height="39.7655"/>
    <path style="fill: #ff0400" d="M 660,389.766 A 10,10 0 0 0 670,399.766 L 670,389.766 z"/>
    <path style="fill: #ff0400" d="M 867.945,399.766 A 10,10 0 0 0 877.945,389.766 L 867.945,389.766 z"/>
    <line style="fill: none; fill-opacity:0; stroke-width: 2.35099e-37; stroke: #000000" x1="670" y1="340" x2="867.945" y2="340"/>
    <line style="fill: none; fill-opacity:0; stroke-width: 2.35099e-37; stroke: #000000" x1="670" y1="399.766" x2="867.945" y2="399.766"/>
    <path style="fill: none; fill-opacity:0; stroke-width: 2.35099e-37; stroke: #000000" d="M 670,340 A 10,10 0 0 0 660,350"/>
    <path style="fill: none; fill-opacity:0; stroke-width: 2.35099e-37; stroke: #000000" d="M 877.945,350 A 10,10 0 0 0 867.945,340"/>
    <line style="fill: none; fill-opacity:0; stroke-width: 2.35099e-37; stroke: #000000" x1="660" y1="350" x2="660" y2="389.766"/>
    <line style="fill: none; fill-opacity:0; stroke-width: 2.35099e-37; stroke: #000000" x1="877.945" y1="350" x2="877.945" y2="389.766"/>
    <path style="fill: none; fill-opacity:0; stroke-width: 2.35099e-37; stroke: #000000" d="M 660,389.766 A 10,10 0 0 0 670,399.766"/>
    <path style="fill: none; fill-opacity:0; stroke-width: 2.35099e-37; stroke: #000000" d="M 867.945,399.766 A 10,10 0 0 0 877.945,389.766"/>
    <text font-size="19.7556" style="fill: #ffffff;text-anchor:middle;font-family:sans-serif;font-style:normal;font-weight:normal" x="768.972" y="375.886">
      <tspan x="768.972" y="375.886">Annotations</tspan>
    </text>
  </g>
  <g>
    <rect style="fill: #ff0400" x="670" y="260" width="200.874" height="62.6944"/>
    <path style="fill: #ff0400" d="M 670,260 A 10,10 0 0 0 660,270 L 670,270 z"/>
    <path style="fill: #ff0400" d="M 880.874,270 A 10,10 0 0 0 870.874,260 L 870.874,270 z"/>
    <rect style="fill: #ff0400" x="660" y="270" width="220.874" height="42.6944"/>
    <path style="fill: #ff0400" d="M 660,312.694 A 10,10 0 0 0 670,322.694 L 670,312.694 z"/>
    <path style="fill: #ff0400" d="M 870.874,322.694 A 10,10 0 0 0 880.874,312.694 L 870.874,312.694 z"/>
    <line style="fill: none; fill-opacity:0; stroke-width: 2.35099e-37; stroke: #000000" x1="670" y1="260" x2="870.874" y2="260"/>
    <line style="fill: none; fill-opacity:0; stroke-width: 2.35099e-37; stroke: #000000" x1="670" y1="322.694" x2="870.874" y2="322.694"/>
    <path style="fill: none; fill-opacity:0; stroke-width: 2.35099e-37; stroke: #000000" d="M 670,260 A 10,10 0 0 0 660,270"/>
    <path style="fill: none; fill-opacity:0; stroke-width: 2.35099e-37; stroke: #000000" d="M 880.874,270 A 10,10 0 0 0 870.874,260"/>
    <line style="fill: none; fill-opacity:0; stroke-width: 2.35099e-37; stroke: #000000" x1="660" y1="270" x2="660" y2="312.694"/>
    <line style="fill: none; fill-opacity:0; stroke-width: 2.35099e-37; stroke: #000000" x1="880.874" y1="270" x2="880.874" y2="312.694"/>
    <path style="fill: none; fill-opacity:0; stroke-width: 2.35099e-37; stroke: #000000" d="M 660,312.694 A 10,10 0 0 0 670,322.694"/>
    <path style="fill: none; fill-opacity:0; stroke-width: 2.35099e-37; stroke: #000000" d="M 870.874,322.694 A 10,10 0 0 0 880.874,312.694"/>
    <text font-size="19.7556" style="fill: #ffffff;text-anchor:middle;font-family:sans-serif;font-style:normal;font-weight:normal" x="770.437" y="297.35">
      <tspan x="770.437" y="297.35">Archives Metadata</tspan>
    </text>
  </g>
  <g>
    <polyline style="fill: none; fill-opacity:0; stroke-width: 10; stroke: #8b6914" points="580,642.628 580,640 681.894,640 681.894,478.68 "/>
    <polygon style="fill: #8b6914" points="681.894,471.18 686.894,481.18 681.894,478.68 676.894,481.18 "/>
    <polygon style="fill: none; fill-opacity:0; stroke-width: 10; stroke: #8b6914" points="681.894,471.18 686.894,481.18 681.894,478.68 676.894,481.18 "/>
  </g>
  <g>
    <rect style="fill: #1e90ff" x="670" y="140" width="140" height="62.6944"/>
    <path style="fill: #1e90ff" d="M 670,140 A 10,10 0 0 0 660,150 L 670,150 z"/>
    <path style="fill: #1e90ff" d="M 820,150 A 10,10 0 0 0 810,140 L 810,150 z"/>
    <rect style="fill: #1e90ff" x="660" y="150" width="160" height="42.6944"/>
    <path style="fill: #1e90ff" d="M 660,192.694 A 10,10 0 0 0 670,202.694 L 670,192.694 z"/>
    <path style="fill: #1e90ff" d="M 810,202.694 A 10,10 0 0 0 820,192.694 L 810,192.694 z"/>
    <line style="fill: none; fill-opacity:0; stroke-width: 2.35099e-37; stroke: #000000" x1="670" y1="140" x2="810" y2="140"/>
    <line style="fill: none; fill-opacity:0; stroke-width: 2.35099e-37; stroke: #000000" x1="670" y1="202.694" x2="810" y2="202.694"/>
    <path style="fill: none; fill-opacity:0; stroke-width: 2.35099e-37; stroke: #000000" d="M 670,140 A 10,10 0 0 0 660,150"/>
    <path style="fill: none; fill-opacity:0; stroke-width: 2.35099e-37; stroke: #000000" d="M 820,150 A 10,10 0 0 0 810,140"/>
    <line style="fill: none; fill-opacity:0; stroke-width: 2.35099e-37; stroke: #000000" x1="660" y1="150" x2="660" y2="192.694"/>
    <line style="fill: none; fill-opacity:0; stroke-width: 2.35099e-37; stroke: #000000" x1="820" y1="150" x2="820" y2="192.694"/>
    <path style="fill: none; fill-opacity:0; stroke-width: 2.35099e-37; stroke: #000000" d="M 660,192.694 A 10,10 0 0 0 670,202.694"/>
    <path style="fill: none; fill-opacity:0; stroke-width: 2.35099e-37; stroke: #000000" d="M 810,202.694 A 10,10 0 0 0 820,192.694"/>
    <text font-size="19.7556" style="fill: #ffffff;text-anchor:middle;font-family:sans-serif;font-style:normal;font-weight:normal" x="740" y="177.35">
      <tspan x="740" y="177.35">Audio</tspan>
    </text>
  </g>
  <g>
    <rect style="fill: #ffffff" x="50" y="560" width="520" height="165.255"/>
    <path style="fill: #ffffff" d="M 50,560 A 10,10 0 0 0 40,570 L 50,570 z"/>
    <path style="fill: #ffffff" d="M 580,570 A 10,10 0 0 0 570,560 L 570,570 z"/>
    <rect style="fill: #ffffff" x="40" y="570" width="540" height="145.255"/>
    <path style="fill: #ffffff" d="M 40,715.255 A 10,10 0 0 0 50,725.255 L 50,715.255 z"/>
    <path style="fill: #ffffff" d="M 570,725.255 A 10,10 0 0 0 580,715.255 L 570,715.255 z"/>
    <line style="fill: none; fill-opacity:0; stroke-width: 3; stroke: #000000" x1="50" y1="560" x2="570" y2="560"/>
    <line style="fill: none; fill-opacity:0; stroke-width: 3; stroke: #000000" x1="50" y1="725.255" x2="570" y2="725.255"/>
    <path style="fill: none; fill-opacity:0; stroke-width: 3; stroke: #000000" d="M 50,560 A 10,10 0 0 0 40,570"/>
    <path style="fill: none; fill-opacity:0; stroke-width: 3; stroke: #000000" d="M 580,570 A 10,10 0 0 0 570,560"/>
    <line style="fill: none; fill-opacity:0; stroke-width: 3; stroke: #000000" x1="40" y1="570" x2="40" y2="715.255"/>
    <line style="fill: none; fill-opacity:0; stroke-width: 3; stroke: #000000" x1="580" y1="570" x2="580" y2="715.255"/>
    <path style="fill: none; fill-opacity:0; stroke-width: 3; stroke: #000000" d="M 40,715.255 A 10,10 0 0 0 50,725.255"/>
    <path style="fill: none; fill-opacity:0; stroke-width: 3; stroke: #000000" d="M 570,725.255 A 10,10 0 0 0 580,715.255"/>
    <text font-size="12.8" style="fill: #00ff00;text-anchor:middle;font-family:sans-serif;font-style:normal;font-weight:normal" x="310" y="646.527">
      <tspan x="310" y="646.527"></tspan>
    </text>
  </g>
  <text font-size="22.5778" style="fill: #000000;text-anchor:start;font-family:sans-serif;font-style:normal;font-weight:700" x="240" y="600">
    <tspan x="240" y="600">TimeSide UI</tspan>
  </text>
  <g>
    <rect style="fill: #ffff00" x="90" y="620" width="440" height="78.9689"/>
    <path style="fill: #ffff00" d="M 90,620 A 10,10 0 0 0 80,630 L 90,630 z"/>
    <path style="fill: #ffff00" d="M 540,630 A 10,10 0 0 0 530,620 L 530,630 z"/>
    <rect style="fill: #ffff00" x="80" y="630" width="460" height="58.9689"/>
    <path style="fill: #ffff00" d="M 80,688.969 A 10,10 0 0 0 90,698.969 L 90,688.969 z"/>
    <path style="fill: #ffff00" d="M 530,698.969 A 10,10 0 0 0 540,688.969 L 530,688.969 z"/>
    <line style="fill: none; fill-opacity:0; stroke-width: 2.35099e-37; stroke: #000000" x1="90" y1="620" x2="530" y2="620"/>
    <line style="fill: none; fill-opacity:0; stroke-width: 2.35099e-37; stroke: #000000" x1="90" y1="698.969" x2="530" y2="698.969"/>
    <path style="fill: none; fill-opacity:0; stroke-width: 2.35099e-37; stroke: #000000" d="M 90,620 A 10,10 0 0 0 80,630"/>
    <path style="fill: none; fill-opacity:0; stroke-width: 2.35099e-37; stroke: #000000" d="M 540,630 A 10,10 0 0 0 530,620"/>
    <line style="fill: none; fill-opacity:0; stroke-width: 2.35099e-37; stroke: #000000" x1="80" y1="630" x2="80" y2="688.969"/>
    <line style="fill: none; fill-opacity:0; stroke-width: 2.35099e-37; stroke: #000000" x1="540" y1="630" x2="540" y2="688.969"/>
    <path style="fill: none; fill-opacity:0; stroke-width: 2.35099e-37; stroke: #000000" d="M 80,688.969 A 10,10 0 0 0 90,698.969"/>
    <path style="fill: none; fill-opacity:0; stroke-width: 2.35099e-37; stroke: #000000" d="M 530,698.969 A 10,10 0 0 0 540,688.969"/>
    <text font-size="19.7556" style="fill: #000000;text-anchor:middle;font-family:sans-serif;font-style:normal;font-weight:normal" x="310" y="665.487">
      <tspan x="310" y="665.487">Player (HTML5, CSS, JavaScript)</tspan>
    </text>
  </g>
  <text font-size="12.8" style="fill: #000000;text-anchor:start;font-family:sans-serif;font-style:normal;font-weight:normal" x="310" y="698.968">
    <tspan x="310" y="698.968"></tspan>
  </text>
  <g>
    <g>
      <rect style="fill: #ffffff" x="740" y="500" width="337.172" height="280"/>
      <rect style="fill: none; fill-opacity:0; stroke-width: 2.35099e-37; stroke: #ff0000" x="740" y="500" width="337.172" height="280"/>
      <text font-size="12.8" style="fill: #00ff00;text-anchor:middle;font-family:sans-serif;font-style:normal;font-weight:normal" x="908.586" y="643.9">
        <tspan x="908.586" y="643.9"></tspan>
      </text>
    </g>
    <g>
      <polyline style="fill: none; fill-opacity:0; stroke-width: 8; stroke: #0000ff" points="761.172,567 801.172,567 801.172,567 824.728,567 "/>
      <polygon style="fill: #0000ff" points="832.228,567 822.228,572 824.728,567 822.228,562 "/>
      <polygon style="fill: none; fill-opacity:0; stroke-width: 8; stroke: #0000ff" points="832.228,567 822.228,572 824.728,567 822.228,562 "/>
    </g>
    <g>
      <polyline style="fill: none; fill-opacity:0; stroke-width: 8; stroke: #ff0400" points="761.172,607 801.172,607 801.172,607 824.728,607 "/>
      <polygon style="fill: #ff0400" points="832.228,607 822.228,612 824.728,607 822.228,602 "/>
      <polygon style="fill: none; fill-opacity:0; stroke-width: 8; stroke: #ff0400" points="832.228,607 822.228,612 824.728,607 822.228,602 "/>
    </g>
    <text font-size="19.7556" style="fill: #000000;text-anchor:start;font-family:sans-serif;font-style:normal;font-weight:700" x="761.172" y="527">
      <tspan x="761.172" y="527">Legend</tspan>
    </text>
    <text font-size="12.8" style="fill: #000000;text-anchor:start;font-family:sans-serif;font-style:normal;font-weight:normal" x="761.172" y="596">
      <tspan x="761.172" y="596"></tspan>
    </text>
    <text font-size="16.9333" style="fill: #000000;text-anchor:start;font-family:sans-serif;font-style:normal;font-weight:normal" x="861.172" y="567">
      <tspan x="861.172" y="567">Binary audio data</tspan>
    </text>
    <text font-size="16.9333" style="fill: #000000;text-anchor:start;font-family:sans-serif;font-style:normal;font-weight:normal" x="861.172" y="607">
      <tspan x="861.172" y="607">Textual metadata</tspan>
    </text>
    <text font-size="16.9333" style="fill: #000000;text-anchor:start;font-family:sans-serif;font-style:normal;font-weight:normal" x="861.172" y="727">
      <tspan x="861.172" y="727">Graph images</tspan>
    </text>
    <g>
      <polyline style="fill: none; fill-opacity:0; stroke-width: 8; stroke: #ffa500" points="757.172,720 797.172,720 797.172,720 820.728,720 "/>
      <polygon style="fill: #ffa500" points="828.228,720 818.228,725 820.728,720 818.228,715 "/>
      <polygon style="fill: none; fill-opacity:0; stroke-width: 8; stroke: #ffa500" points="828.228,720 818.228,725 820.728,720 818.228,715 "/>
    </g>
    <text font-size="12.8" style="fill: #000000;text-anchor:start;font-family:sans-serif;font-style:normal;font-weight:normal" x="941.172" y="676">
      <tspan x="941.172" y="676"></tspan>
    </text>
    <text font-size="16.9333" style="fill: #000000;text-anchor:start;font-family:sans-serif;font-style:normal;font-weight:normal" x="861.172" y="687">
      <tspan x="861.172" y="687">Analysis results</tspan>
    </text>
    <g>
      <polyline style="fill: none; fill-opacity:0; stroke-width: 8; stroke: #1af5dd" points="761.172,687 801.172,687 801.172,687 824.728,687 "/>
      <polygon style="fill: #1af5dd" points="832.228,687 822.228,692 824.728,687 822.228,682 "/>
      <polygon style="fill: none; fill-opacity:0; stroke-width: 8; stroke: #1af5dd" points="832.228,687 822.228,692 824.728,687 822.228,682 "/>
    </g>
    <text font-size="12.8" style="fill: #000000;text-anchor:start;font-family:sans-serif;font-style:normal;font-weight:normal" x="941.172" y="696">
      <tspan x="941.172" y="696"></tspan>
    </text>
    <text font-size="12.8" style="fill: #000000;text-anchor:start;font-family:sans-serif;font-style:normal;font-weight:normal" x="921.172" y="727">
      <tspan x="921.172" y="727"></tspan>
    </text>
    <g>
      <polyline style="fill: none; fill-opacity:0; stroke-width: 8; stroke: #a020f0" points="761.172,647 801.172,647 801.172,647 824.728,647 "/>
      <polygon style="fill: #a020f0" points="832.228,647 822.228,652 824.728,647 822.228,642 "/>
      <polygon style="fill: none; fill-opacity:0; stroke-width: 8; stroke: #a020f0" points="832.228,647 822.228,652 824.728,647 822.228,642 "/>
    </g>
    <text font-size="16.9333" style="fill: #000000;text-anchor:start;font-family:sans-serif;font-style:normal;font-weight:normal" x="861.172" y="647">
      <tspan x="861.172" y="647">Audio data &amp; metadata </tspan>
    </text>
    <g>
      <line style="fill: none; fill-opacity:0; stroke-width: 8; stroke: #8b6914" x1="760" y1="760" x2="823.556" y2="760"/>
      <polygon style="fill: #8b6914" points="831.056,760 821.056,765 823.556,760 821.056,755 "/>
      <polygon style="fill: none; fill-opacity:0; stroke-width: 8; stroke: #8b6914" points="831.056,760 821.056,765 823.556,760 821.056,755 "/>
    </g>
    <text font-size="16.9333" style="fill: #000000;text-anchor:start;font-family:sans-serif;font-style:normal;font-weight:normal" x="857.172" y="764.972">
      <tspan x="857.172" y="764.972">HTTP Requests</tspan>
    </text>
  </g>
  <g>
    <polyline style="fill: none; fill-opacity:0; stroke-width: 10; stroke: #ff0000" points="660,290.276 555.752,290.276 "/>
    <polygon style="fill: #ff0000" points="548.252,290.276 558.252,285.276 555.752,290.276 558.252,295.276 "/>
    <polygon style="fill: none; fill-opacity:0; stroke-width: 10; stroke: #ff0000" points="548.252,290.276 558.252,285.276 555.752,290.276 558.252,295.276 "/>
  </g>
  <g>
    <polyline style="fill: none; fill-opacity:0; stroke-width: 10; stroke: #0000ff" points="121,200 121,241.32 "/>
    <polygon style="fill: #0000ff" points="121,248.82 116,238.82 121,241.32 126,238.82 "/>
    <polygon style="fill: none; fill-opacity:0; stroke-width: 10; stroke: #0000ff" points="121,248.82 116,238.82 121,241.32 126,238.82 "/>
  </g>
  <g>
    <polyline style="fill: none; fill-opacity:0; stroke-width: 10; stroke: #0000ff" points="279.028,200 279.028,241.32 "/>
    <polygon style="fill: #0000ff" points="279.028,248.82 274.028,238.82 279.028,241.32 284.028,238.82 "/>
    <polygon style="fill: none; fill-opacity:0; stroke-width: 10; stroke: #0000ff" points="279.028,248.82 274.028,238.82 279.028,241.32 284.028,238.82 "/>
  </g>
  <g>
    <polyline style="fill: none; fill-opacity:0; stroke-width: 10; stroke: #a020f0" points="453.514,200 453.514,241.32 "/>
    <polygon style="fill: #a020f0" points="453.514,248.82 448.514,238.82 453.514,241.32 458.514,238.82 "/>
    <polygon style="fill: none; fill-opacity:0; stroke-width: 10; stroke: #a020f0" points="453.514,248.82 448.514,238.82 453.514,241.32 458.514,238.82 "/>
  </g>
  <g>
    <polyline style="fill: none; fill-opacity:0; stroke-width: 10; stroke: #a020f0" points="453.082,320 453.082,320 453.082,541.32 "/>
    <polygon style="fill: #a020f0" points="453.082,548.82 448.082,538.82 453.082,541.32 458.082,538.82 "/>
    <polygon style="fill: none; fill-opacity:0; stroke-width: 10; stroke: #a020f0" points="453.082,548.82 448.082,538.82 453.082,541.32 458.082,538.82 "/>
  </g>
  <g>
    <polyline style="fill: none; fill-opacity:0; stroke-width: 10; stroke: #a020f0" points="640,150 640,150 555.752,150 "/>
    <polygon style="fill: #a020f0" points="548.252,150 558.252,145 555.752,150 558.252,155 "/>
    <polygon style="fill: none; fill-opacity:0; stroke-width: 10; stroke: #a020f0" points="548.252,150 558.252,145 555.752,150 558.252,155 "/>
  </g>
  <g>
    <polyline style="fill: none; fill-opacity:0; stroke-width: 10; stroke: #1af5dd" points="120.34,320 120.94,320 120.94,541.32 "/>
    <polygon style="fill: #1af5dd" points="120.94,548.82 115.94,538.82 120.94,541.32 125.94,538.82 "/>
    <polygon style="fill: none; fill-opacity:0; stroke-width: 10; stroke: #1af5dd" points="120.94,548.82 115.94,538.82 120.94,541.32 125.94,538.82 "/>
  </g>
  <g>
    <rect style="fill: #7dff7d" x="70" y="420" width="460" height="60"/>
    <path style="fill: #7dff7d" d="M 70,420 A 10,10 0 0 0 60,430 L 70,430 z"/>
    <path style="fill: #7dff7d" d="M 540,430 A 10,10 0 0 0 530,420 L 530,430 z"/>
    <rect style="fill: #7dff7d" x="60" y="430" width="480" height="40"/>
    <path style="fill: #7dff7d" d="M 60,470 A 10,10 0 0 0 70,480 L 70,470 z"/>
    <path style="fill: #7dff7d" d="M 530,480 A 10,10 0 0 0 540,470 L 530,470 z"/>
    <line style="fill: none; fill-opacity:0; stroke-width: 2.35099e-37; stroke: #000000" x1="70" y1="420" x2="530" y2="420"/>
    <line style="fill: none; fill-opacity:0; stroke-width: 2.35099e-37; stroke: #000000" x1="70" y1="480" x2="530" y2="480"/>
    <path style="fill: none; fill-opacity:0; stroke-width: 2.35099e-37; stroke: #000000" d="M 70,420 A 10,10 0 0 0 60,430"/>
    <path style="fill: none; fill-opacity:0; stroke-width: 2.35099e-37; stroke: #000000" d="M 540,430 A 10,10 0 0 0 530,420"/>
    <line style="fill: none; fill-opacity:0; stroke-width: 2.35099e-37; stroke: #000000" x1="60" y1="430" x2="60" y2="470"/>
    <line style="fill: none; fill-opacity:0; stroke-width: 2.35099e-37; stroke: #000000" x1="540" y1="430" x2="540" y2="470"/>
    <path style="fill: none; fill-opacity:0; stroke-width: 2.35099e-37; stroke: #000000" d="M 60,470 A 10,10 0 0 0 70,480"/>
    <path style="fill: none; fill-opacity:0; stroke-width: 2.35099e-37; stroke: #000000" d="M 530,480 A 10,10 0 0 0 540,470"/>
    <text font-size="19.7556" style="fill: #000000;text-anchor:middle;font-family:sans-serif;font-style:normal;font-weight:normal" x="300" y="456.003">
      <tspan x="300" y="456.003">Cache</tspan>
    </text>
  </g>
  <g>
    <rect style="fill: #c3d9ff" x="70" y="340" width="100" height="60"/>
    <path style="fill: #c3d9ff" d="M 70,340 A 10,10 0 0 0 60,350 L 70,350 z"/>
    <path style="fill: #c3d9ff" d="M 180,350 A 10,10 0 0 0 170,340 L 170,350 z"/>
    <rect style="fill: #c3d9ff" x="60" y="350" width="120" height="40"/>
    <path style="fill: #c3d9ff" d="M 60,390 A 10,10 0 0 0 70,400 L 70,390 z"/>
    <path style="fill: #c3d9ff" d="M 170,400 A 10,10 0 0 0 180,390 L 170,390 z"/>
    <line style="fill: none; fill-opacity:0; stroke-width: 2.35099e-37; stroke: #000000" x1="70" y1="340" x2="170" y2="340"/>
    <line style="fill: none; fill-opacity:0; stroke-width: 2.35099e-37; stroke: #000000" x1="70" y1="400" x2="170" y2="400"/>
    <path style="fill: none; fill-opacity:0; stroke-width: 2.35099e-37; stroke: #000000" d="M 70,340 A 10,10 0 0 0 60,350"/>
    <path style="fill: none; fill-opacity:0; stroke-width: 2.35099e-37; stroke: #000000" d="M 180,350 A 10,10 0 0 0 170,340"/>
    <line style="fill: none; fill-opacity:0; stroke-width: 2.35099e-37; stroke: #000000" x1="60" y1="350" x2="60" y2="390"/>
    <line style="fill: none; fill-opacity:0; stroke-width: 2.35099e-37; stroke: #000000" x1="180" y1="350" x2="180" y2="390"/>
    <path style="fill: none; fill-opacity:0; stroke-width: 2.35099e-37; stroke: #000000" d="M 60,390 A 10,10 0 0 0 70,400"/>
    <path style="fill: none; fill-opacity:0; stroke-width: 2.35099e-37; stroke: #000000" d="M 170,400 A 10,10 0 0 0 180,390"/>
    <text font-size="19.7556" style="fill: #000000;text-anchor:middle;font-family:sans-serif;font-style:normal;font-weight:normal" x="120" y="376.003">
      <tspan x="120" y="376.003">Serializer</tspan>
    </text>
  </g>
</svg>
